<svg width="298" height="76" viewBox="0 0 298 76" fill="none" xmlns="http://www.w3.org/2000/svg">
<path d="M12.9553 63V11.8125H31.342C37.9279 11.8125 42.9318 13.0195 46.3537 15.4336C49.799 17.8477 51.5217 21.3516 51.5217 25.9453C51.5217 28.5938 50.9123 30.8555 49.6936 32.7305C48.4748 34.6055 46.6818 35.9883 44.3147 36.8789C46.9865 37.582 49.0373 38.8945 50.467 40.8164C51.8967 42.7383 52.6115 45.082 52.6115 47.8477C52.6115 52.8633 51.0178 56.6367 47.8303 59.168C44.6662 61.6758 39.967 62.9531 33.7326 63H12.9553ZM25.2951 41.2383V53.5078H33.3811C35.6076 53.5078 37.3186 53.0039 38.5139 51.9961C39.7092 50.9648 40.3068 49.5234 40.3068 47.6719C40.3068 43.4062 38.1857 41.2617 33.9436 41.2383H25.2951ZM25.2951 33.1523H31.7287C34.424 33.1289 36.3459 32.6367 37.4943 31.6758C38.6428 30.7148 39.217 29.2969 39.217 27.4219C39.217 25.2656 38.5959 23.7188 37.3537 22.7812C36.1115 21.8203 34.1076 21.3398 31.342 21.3398H25.2951V33.1523ZM102.779 38.4609C102.779 43.4531 101.854 47.8711 100.002 51.7148C98.1506 55.5586 95.5139 58.5234 92.092 60.6094C88.6936 62.6719 84.8147 63.7031 80.4553 63.7031C76.0959 63.7031 72.2287 62.707 68.8537 60.7148C65.4787 58.6992 62.842 55.8281 60.9436 52.1016C59.0686 48.375 58.0842 44.0977 57.9904 39.2695V36.3867C57.9904 31.3711 58.9045 26.9531 60.7326 23.1328C62.5842 19.2891 65.2209 16.3242 68.6428 14.2383C72.0881 12.1523 76.0022 11.1094 80.385 11.1094C84.7209 11.1094 88.5881 12.1406 91.9865 14.2031C95.385 16.2656 98.0217 19.207 99.8967 23.0273C101.795 26.8242 102.756 31.1836 102.779 36.1055V38.4609ZM90.2287 36.3164C90.2287 31.2305 89.3732 27.375 87.6623 24.75C85.9748 22.1016 83.549 20.7773 80.385 20.7773C74.1975 20.7773 70.9279 25.418 70.5764 34.6992L70.5412 38.4609C70.5412 43.4766 71.3732 47.332 73.0373 50.0273C74.7014 52.7227 77.174 54.0703 80.4553 54.0703C83.5725 54.0703 85.9748 52.7461 87.6623 50.0977C89.3498 47.4492 90.2053 43.6406 90.2287 38.6719V36.3164ZM137.444 53.4375H120.533L117.58 63H104.397L123.17 11.8125H134.772L153.686 63H140.432L137.444 53.4375ZM123.487 43.9102H134.49L128.971 26.1562L123.487 43.9102ZM176.467 44.9297H169.787V63H157.447V11.8125H177.592C183.662 11.8125 188.408 13.1602 191.83 15.8555C195.252 18.5508 196.963 22.3594 196.963 27.2812C196.963 30.8438 196.237 33.7969 194.783 36.1406C193.354 38.4844 191.104 40.3828 188.033 41.8359L198.721 62.4727V63H185.502L176.467 44.9297ZM169.787 35.4023H177.592C179.936 35.4023 181.694 34.793 182.865 33.5742C184.061 32.332 184.658 30.6094 184.658 28.4062C184.658 26.2031 184.061 24.4805 182.865 23.2383C181.67 21.9727 179.912 21.3398 177.592 21.3398H169.787V35.4023ZM204.416 63V11.8125H220.904C225.428 11.8125 229.494 12.8437 233.104 14.9062C236.713 16.9453 239.526 19.8398 241.541 23.5898C243.58 27.3164 244.612 31.5 244.635 36.1406V38.4961C244.635 43.1836 243.639 47.3906 241.647 51.1172C239.678 54.8203 236.889 57.7266 233.279 59.8359C229.694 61.9219 225.686 62.9766 221.256 63H204.416ZM216.756 21.3398V53.5078H221.045C224.584 53.5078 227.303 52.2539 229.201 49.7461C231.1 47.2148 232.049 43.4648 232.049 38.4961V36.2812C232.049 31.3359 231.1 27.6094 229.201 25.1016C227.303 22.5938 224.537 21.3398 220.904 21.3398H216.756ZM277.365 49.3945C277.365 47.5898 276.721 46.1836 275.432 45.1758C274.166 44.168 271.928 43.125 268.717 42.0469C265.506 40.9688 262.881 39.9258 260.842 38.918C254.209 35.6602 250.893 31.1836 250.893 25.4883C250.893 22.6523 251.713 20.1562 253.354 18C255.018 15.8203 257.362 14.1328 260.385 12.9375C263.408 11.7187 266.807 11.1094 270.58 11.1094C274.26 11.1094 277.553 11.7656 280.459 13.0781C283.389 14.3906 285.662 16.2656 287.279 18.7031C288.897 21.1172 289.705 23.8828 289.705 27H277.401C277.401 24.9141 276.756 23.2969 275.467 22.1484C274.201 21 272.479 20.4258 270.299 20.4258C268.096 20.4258 266.35 20.918 265.061 21.9023C263.795 22.8633 263.162 24.0937 263.162 25.5938C263.162 26.9062 263.865 28.1016 265.272 29.1797C266.678 30.2344 269.151 31.3359 272.69 32.4844C276.229 33.6094 279.135 34.8281 281.408 36.1406C286.94 39.3281 289.705 43.7227 289.705 49.3242C289.705 53.8008 288.018 57.3164 284.643 59.8711C281.268 62.4258 276.639 63.7031 270.756 63.7031C266.608 63.7031 262.846 62.9648 259.471 61.4883C256.119 59.9883 253.588 57.9492 251.877 55.3711C250.19 52.7695 249.346 49.7812 249.346 46.4062H261.721C261.721 49.1484 262.424 51.1758 263.83 52.4883C265.26 53.7773 267.569 54.4219 270.756 54.4219C272.795 54.4219 274.401 53.9883 275.572 53.1211C276.768 52.2305 277.365 50.9883 277.365 49.3945Z" fill="#379392" fill-opacity="0.4"/>
<path d="M6.70099 66V14.8125H25.0877C31.6736 14.8125 36.6775 16.0195 40.0994 18.4336C43.5447 20.8477 45.2674 24.3516 45.2674 28.9453C45.2674 31.5938 44.658 33.8555 43.4393 35.7305C42.2205 37.6055 40.4275 38.9883 38.0603 39.8789C40.7322 40.582 42.783 41.8945 44.2127 43.8164C45.6424 45.7383 46.3572 48.082 46.3572 50.8477C46.3572 55.8633 44.7635 59.6367 41.576 62.168C38.4119 64.6758 33.7127 65.9531 27.4783 66H6.70099ZM19.0408 44.2383V56.5078H27.1268C29.3533 56.5078 31.0643 56.0039 32.2596 54.9961C33.4549 53.9648 34.0525 52.5234 34.0525 50.6719C34.0525 46.4062 31.9314 44.2617 27.6893 44.2383H19.0408ZM19.0408 36.1523H25.4744C28.1697 36.1289 30.0916 35.6367 31.24 34.6758C32.3885 33.7148 32.9627 32.2969 32.9627 30.4219C32.9627 28.2656 32.3416 26.7188 31.0994 25.7812C29.8572 24.8203 27.8533 24.3398 25.0877 24.3398H19.0408V36.1523ZM96.5252 41.4609C96.5252 46.4531 95.5994 50.8711 93.7478 54.7148C91.8963 58.5586 89.2596 61.5234 85.8377 63.6094C82.4393 65.6719 78.5603 66.7031 74.201 66.7031C69.8416 66.7031 65.9744 65.707 62.5994 63.7148C59.2244 61.6992 56.5877 58.8281 54.6893 55.1016C52.8143 51.375 51.8299 47.0977 51.7361 42.2695V39.3867C51.7361 34.3711 52.6502 29.9531 54.4783 26.1328C56.3299 22.2891 58.9666 19.3242 62.3885 17.2383C65.8338 15.1523 69.7478 14.1094 74.1307 14.1094C78.4666 14.1094 82.3338 15.1406 85.7322 17.2031C89.1307 19.2656 91.7674 22.207 93.6424 26.0273C95.5408 29.8242 96.5018 34.1836 96.5252 39.1055V41.4609ZM83.9744 39.3164C83.9744 34.2305 83.1189 30.375 81.408 27.75C79.7205 25.1016 77.2947 23.7773 74.1307 23.7773C67.9432 23.7773 64.6736 28.418 64.3221 37.6992L64.2869 41.4609C64.2869 46.4766 65.1189 50.332 66.783 53.0273C68.4471 55.7227 70.9197 57.0703 74.201 57.0703C77.3182 57.0703 79.7205 55.7461 81.408 53.0977C83.0955 50.4492 83.951 46.6406 83.9744 41.6719V39.3164ZM131.189 56.4375H114.279L111.326 66H98.1424L116.916 14.8125H128.517L147.431 66H134.178L131.189 56.4375ZM117.232 46.9102H128.236L122.717 29.1562L117.232 46.9102ZM170.213 47.9297H163.533V66H151.193V14.8125H171.338C177.408 14.8125 182.154 16.1602 185.576 18.8555C188.998 21.5508 190.709 25.3594 190.709 30.2812C190.709 33.8438 189.982 36.7969 188.529 39.1406C187.099 41.4844 184.849 43.3828 181.779 44.8359L192.467 65.4727V66H179.248L170.213 47.9297ZM163.533 38.4023H171.338C173.681 38.4023 175.439 37.793 176.611 36.5742C177.806 35.332 178.404 33.6094 178.404 31.4062C178.404 29.2031 177.806 27.4805 176.611 26.2383C175.416 24.9727 173.658 24.3398 171.338 24.3398H163.533V38.4023ZM198.162 66V14.8125H214.65C219.174 14.8125 223.24 15.8437 226.849 17.9062C230.459 19.9453 233.271 22.8398 235.287 26.5898C237.326 30.3164 238.357 34.5 238.381 39.1406V41.4961C238.381 46.1836 237.385 50.3906 235.392 54.1172C233.424 57.8203 230.635 60.7266 227.025 62.8359C223.439 64.9219 219.431 65.9766 215.002 66H198.162ZM210.502 24.3398V56.5078H214.791C218.33 56.5078 221.049 55.2539 222.947 52.7461C224.846 50.2148 225.795 46.4648 225.795 41.4961V39.2812C225.795 34.3359 224.846 30.6094 222.947 28.1016C221.049 25.5938 218.283 24.3398 214.65 24.3398H210.502ZM271.111 52.3945C271.111 50.5898 270.467 49.1836 269.178 48.1758C267.912 47.168 265.674 46.125 262.463 45.0469C259.252 43.9688 256.627 42.9258 254.588 41.918C247.955 38.6602 244.638 34.1836 244.638 28.4883C244.638 25.6523 245.459 23.1562 247.099 21C248.763 18.8203 251.107 17.1328 254.131 15.9375C257.154 14.7187 260.553 14.1094 264.326 14.1094C268.006 14.1094 271.299 14.7656 274.205 16.0781C277.135 17.3906 279.408 19.2656 281.025 21.7031C282.642 24.1172 283.451 26.8828 283.451 30H271.146C271.146 27.9141 270.502 26.2969 269.213 25.1484C267.947 24 266.224 23.4258 264.045 23.4258C261.842 23.4258 260.096 23.918 258.806 24.9023C257.541 25.8633 256.908 27.0937 256.908 28.5938C256.908 29.9062 257.611 31.1016 259.017 32.1797C260.424 33.2344 262.896 34.3359 266.435 35.4844C269.974 36.6094 272.881 37.8281 275.154 39.1406C280.685 42.3281 283.451 46.7227 283.451 52.3242C283.451 56.8008 281.763 60.3164 278.388 62.8711C275.013 65.4258 270.385 66.7031 264.502 66.7031C260.353 66.7031 256.592 65.9648 253.217 64.4883C249.865 62.9883 247.334 60.9492 245.623 58.3711C243.935 55.7695 243.092 52.7812 243.092 49.4062H255.467C255.467 52.1484 256.17 54.1758 257.576 55.4883C259.006 56.7773 261.314 57.4219 264.502 57.4219C266.541 57.4219 268.146 56.9883 269.318 56.1211C270.513 55.2305 271.111 53.9883 271.111 52.3945Z" fill="#379392" fill-opacity="0.6"/>
</svg>
